<?xml version="1.0" standalone="no"?>
<!DOCTYPE svg PUBLIC "-//W3C//DTD SVG 20010904//EN"
 "http://www.w3.org/TR/2001/REC-SVG-20010904/DTD/svg10.dtd">
<svg version="1.0" xmlns="http://www.w3.org/2000/svg"
 width="1536.000000pt" height="1024.000000pt" viewBox="0 0 1536.000000 1024.000000"
 preserveAspectRatio="xMidYMid meet">

<g transform="translate(0.000000,1024.000000) scale(0.100000,-0.100000)"
fill="#000000" stroke="none">
<path d="M3879 7179 c-323 -18 -532 -93 -754 -273 -98 -79 -201 -192 -275
-301 -83 -123 -160 -293 -160 -354 0 -33 26 -71 48 -71 10 0 53 32 97 71 193
172 376 286 520 324 188 50 378 18 463 -79 54 -62 71 -111 87 -256 4 -30 11
-69 16 -87 12 -39 57 -79 99 -88 l30 -7 0 -444 0 -444 -39 -24 c-74 -47 -71
-7 -70 -914 0 -729 2 -813 17 -873 34 -128 128 -244 242 -298 55 -26 57 -26
305 -26 l250 0 58 29 c74 38 156 124 200 212 51 102 80 205 317 1154 67 267
132 508 144 535 32 71 64 104 163 173 114 78 174 139 217 222 46 88 66 166 66
263 0 139 -41 251 -125 345 -50 55 -69 63 -84 35 -14 -27 -40 -154 -60 -299
-11 -73 -24 -142 -31 -154 -56 -104 -388 -64 -444 54 -22 46 -20 74 9 202 29
130 51 291 42 301 -4 3 -35 -7 -70 -23 -165 -77 -298 -295 -297 -487 1 -80 16
-132 76 -258 66 -139 77 -197 59 -300 -12 -68 -267 -1153 -313 -1332 -20 -76
-46 -122 -63 -111 -5 3 -9 330 -9 727 0 685 -1 724 -19 763 -11 23 -33 50 -50
60 l-31 18 0 446 0 446 43 19 c60 28 83 68 91 159 14 158 60 238 167 296 56
30 75 35 155 38 112 5 153 -7 213 -63 25 -23 56 -47 68 -54 13 -7 78 -11 168
-11 l147 0 29 29 29 29 0 312 0 312 -29 29 -29 29 -158 0 -158 0 -55 -59 c-31
-32 -67 -65 -80 -71 -35 -18 -187 -25 -238 -11 -23 6 -63 27 -90 46 -94 69
-139 84 -274 95 -143 11 -418 11 -630 -1z"/>
<path d="M6235 4883 c-140 -50 -205 -155 -205 -330 l0 -83 -85 0 -85 0 0 -105
0 -105 83 0 82 0 0 -373 0 -372 128 -3 127 -3 0 376 0 375 110 0 110 0 0 105
0 105 -111 0 -112 0 6 66 c11 110 54 149 157 142 l57 -4 6 105 c3 59 3 108 0
111 -2 3 -52 6 -111 8 -83 2 -118 -2 -157 -15z"/>
<path d="M10680 4150 l0 -640 135 0 135 0 0 640 0 640 -135 0 -135 0 0 -640z"/>
<path d="M10080 4605 l0 -135 -80 0 -80 0 0 -105 0 -105 80 0 80 0 0 -259 c0
-142 5 -283 10 -312 15 -78 53 -128 125 -164 56 -28 68 -30 170 -30 61 0 122
3 138 8 l27 7 0 100 0 100 -74 0 c-65 0 -79 3 -103 24 l-28 24 -3 251 -3 251
106 0 105 0 0 100 0 100 -105 0 -105 0 0 140 0 140 -130 0 -130 0 0 -135z"/>
<path d="M6873 4475 c-86 -19 -153 -57 -218 -126 -63 -66 -99 -137 -120 -236
-38 -176 7 -364 113 -484 162 -181 520 -186 685 -10 44 47 90 118 102 159 6
22 6 22 -113 22 l-120 0 -36 -44 c-68 -83 -178 -99 -273 -40 -52 32 -88 91
-99 162 l-7 42 332 0 331 0 0 68 c0 159 -42 282 -127 373 -103 111 -270 153
-450 114z m232 -208 c44 -24 82 -87 87 -146 l3 -34 -203 -1 -204 -1 6 33 c3
19 16 53 30 77 51 87 191 123 281 72z"/>
<path d="M9295 4480 c-230 -48 -368 -231 -368 -490 0 -161 36 -263 129 -360
90 -95 200 -140 341 -140 196 0 344 84 422 241 l32 64 -121 3 -122 3 -46 -50
c-47 -49 -94 -71 -152 -71 -105 0 -198 86 -216 199 l-7 41 332 0 331 0 0 93
c0 252 -118 418 -327 462 -74 16 -165 18 -228 5z m205 -210 c45 -23 73 -60 89
-115 21 -75 34 -70 -194 -70 -198 0 -205 1 -205 20 1 28 33 95 60 124 57 59
176 79 250 41z"/>
<path d="M11552 4479 c-67 -11 -142 -49 -176 -89 l-26 -32 0 56 0 56 -125 0
-125 0 0 -480 0 -480 130 0 130 0 0 286 c0 180 4 302 11 330 40 157 264 180
327 34 13 -28 16 -92 19 -340 l4 -305 129 -3 130 -3 0 318 c0 403 -10 457 -97
554 -48 53 -116 87 -200 99 -37 5 -70 9 -73 9 -3 -1 -29 -5 -58 -10z"/>
<path d="M7966 4464 c-33 -10 -64 -31 -97 -64 l-49 -49 0 59 0 60 -125 0 -125
0 0 -480 0 -480 129 0 130 0 3 288 c3 275 4 289 25 329 15 27 39 52 70 70 41
24 60 28 145 31 l98 4 0 118 c0 114 -1 118 -22 124 -40 10 -131 5 -182 -10z"/>
<path d="M8677 4464 c-31 -10 -65 -32 -97 -63 l-50 -47 0 58 0 58 -125 0 -125
0 0 -480 0 -480 130 0 130 0 0 283 c0 254 2 286 19 323 36 78 109 114 232 114
l78 0 3 116 c3 114 2 117 -20 125 -34 13 -120 10 -175 -7z"/>
<path d="M12026 4373 c41 -114 214 -598 269 -755 l38 -108 137 0 137 0 46 123
c25 67 102 275 171 462 68 187 128 348 131 358 7 16 -3 17 -127 17 l-134 0
-102 -312 c-57 -172 -106 -320 -108 -328 -3 -8 -25 46 -49 120 -23 74 -70 222
-104 328 l-62 192 -139 0 -139 0 35 -97z"/>
</g>
</svg>
